<?xml version="1.0" encoding="UTF-8"?>
<!-- Generator: visioncortex VTracer 0.6.3 -->
<svg version="1.1" xmlns="http://www.w3.org/2000/svg" width="1280" height="1099">
<path d="M0 0 C422.4 0 844.8 0 1280 0 C1280 362.67 1280 725.34 1280 1099 C857.6 1099 435.2 1099 0 1099 C0 736.33 0 373.66 0 0 Z " fill="#F9FCFE" transform="translate(0,0)"/>
<path d="M0 0 C1.01 -0 2.02 -0 3.05 -0 C18.18 0 33.22 0.5 48.31 1.56 C49.17 1.62 50.04 1.68 50.92 1.74 C68.97 3.01 86.73 5.85 104.5 9.19 C105.83 9.43 107.16 9.67 108.5 9.91 C116.16 11.33 123.62 13.13 131.09 15.35 C134.6 16.39 138.12 17.27 141.69 18.12 C148.26 19.74 154.79 21.49 161.31 23.31 C162.66 23.68 162.66 23.68 164.03 24.06 C168.54 25.33 172.13 26.77 176.12 29.25 C178.44 29.98 180.78 30.64 183.12 31.25 C187.68 32.43 191.14 33.79 195.12 36.25 C198.02 37.3 200.95 38.19 203.89 39.09 C207.06 40.23 209.92 41.59 212.9 43.12 C215.33 44.35 217.79 45.53 220.25 46.69 C221.14 47.11 222.03 47.53 222.95 47.96 C224.78 48.82 226.61 49.68 228.44 50.54 C233.47 52.92 238.33 55.42 243.12 58.25 C244.57 59.08 244.57 59.08 246.05 59.93 C263.78 70.19 281.11 81.45 297.12 94.25 C297.97 94.92 298.81 95.58 299.68 96.27 C305.55 100.99 311.14 105.93 316.62 111.09 C318.96 113.28 321.31 115.4 323.82 117.39 C325.86 119.04 327.45 120.62 329.12 122.62 C331.44 125.34 333.8 127.98 336.25 130.57 C341.68 136.28 346.84 141.76 351 148.5 C352.43 150.72 354.23 152.41 356.12 154.25 C357.49 156.24 358.82 158.23 360.12 160.25 C360.75 161.21 360.75 161.21 361.38 162.19 C363.25 165.07 365.11 167.96 366.97 170.85 C369.44 174.68 371.95 178.46 374.56 182.19 C377.07 185.9 378.64 189.74 380.2 193.92 C381.24 196.54 382.61 198.87 384.05 201.28 C387.56 207.73 390.08 214.76 392.27 221.75 C392.87 223.49 393.53 225.21 394.23 226.92 C397.74 235.35 399.74 243.69 401.44 252.64 C401.88 254.95 402.33 257.26 402.79 259.56 C405.32 272.41 406.34 284.72 406.31 297.81 C406.31 298.53 406.31 299.24 406.31 299.98 C406.27 310.52 406.08 320.85 404.12 331.25 C403.84 332.77 403.84 332.77 403.55 334.32 C399.89 353.59 395.6 372.92 386.12 390.25 C385.63 391.4 385.13 392.56 384.62 393.75 C380.24 403.98 374.66 413.61 369.12 423.25 C368.47 423.25 367.8 423.25 367.12 423.25 C366.86 423.95 366.59 424.65 366.31 425.38 C363.01 433.37 363.01 433.37 360.28 436.09 C357.88 438.5 355.99 441.05 354 443.81 C350.11 449.07 345.94 453.91 341.48 458.71 C338.85 461.55 336.31 464.46 333.79 467.4 C331.66 469.77 329.39 472 327.12 474.25 C326.3 475.1 325.47 475.95 324.62 476.83 C319.27 482.29 313.81 487.29 307.82 492.06 C305.12 494.25 302.56 496.53 300 498.88 C293.57 504.73 286.91 510.61 278.94 514.25 C276.79 515.25 276.79 515.25 275.12 518.25 C273.48 518.96 271.81 519.62 270.12 520.25 C268.68 521.12 267.26 522.04 265.88 523 C265.09 523.53 264.31 524.06 263.51 524.61 C261.98 525.66 260.46 526.71 258.93 527.77 C248.88 534.61 238 539.87 227.12 545.25 C225.62 546 224.12 546.75 222.62 547.5 C220.89 548.37 220.89 548.37 219.12 549.25 C217.7 549.99 217.7 549.99 216.25 550.75 C212.79 552.41 209.28 553.81 205.71 555.21 C203.28 556.19 200.89 557.23 198.5 558.31 C194.43 560.14 190.31 561.72 186.12 563.25 C184.75 563.77 183.37 564.29 182 564.81 C180.71 565.29 179.42 565.77 178.12 566.25 C177.09 566.64 176.06 567.03 175 567.44 C171.92 568.31 169.31 568.4 166.12 568.25 C165.79 569.24 165.47 570.23 165.12 571.25 C162.32 572.06 162.32 572.06 158.69 572.69 C154.31 573.45 150.57 574.41 146.48 576.16 C140.43 578.67 134.22 579.98 127.81 581.31 C125.52 581.8 123.24 582.29 120.95 582.79 C119.82 583.02 118.69 583.26 117.52 583.51 C114.16 584.24 110.82 585.04 107.48 585.84 C101.61 587.2 95.79 588.06 89.81 588.75 C81.79 589.73 73.9 590.94 65.99 592.6 C56.03 594.27 45.89 594.5 35.81 594.81 C35.15 594.83 34.48 594.85 33.8 594.88 C-45.75 597.32 -45.75 597.32 -70.46 590.78 C-76.79 589.39 -83.31 588.84 -89.74 588.08 C-96.93 587.21 -103.76 586.2 -110.64 583.94 C-114.18 582.85 -117.78 582.31 -121.44 581.75 C-126.64 580.89 -131.51 579.91 -136.46 578.05 C-139.09 577.18 -141.74 576.55 -144.43 575.92 C-151.43 574.29 -157.94 572.19 -164.56 569.4 C-169.14 567.48 -173.68 566.09 -178.51 564.99 C-180.88 564.25 -180.88 564.25 -183.28 562.79 C-186.22 561.05 -188.96 560.22 -192.25 559.31 C-197.37 557.8 -201.34 556.01 -205.88 553.25 C-207.91 552.43 -209.97 551.7 -212.04 550.96 C-214.5 550.01 -216.63 548.63 -218.88 547.25 C-221.19 546.19 -223.53 545.23 -225.88 544.25 C-226.53 543.92 -227.19 543.59 -227.88 543.25 C-229.85 543.15 -231.83 543.12 -233.81 543.12 C-235.4 543.12 -235.4 543.12 -237.03 543.12 C-239.95 543.12 -239.95 543.12 -242.88 544.25 C-243.21 544.91 -243.53 545.57 -243.88 546.25 C-244.87 546.25 -245.86 546.25 -246.88 546.25 C-247.22 547.09 -247.22 547.09 -247.56 547.94 C-249.98 552.19 -253.73 555.14 -257.44 558.25 C-260.32 560.68 -262.57 563.26 -264.88 566.25 C-268.8 570.41 -273.1 574.15 -277.36 577.96 C-280.64 580.95 -283.78 584.06 -286.88 587.25 C-288.88 586.25 -288.88 586.25 -289.88 583.25 C-289.97 580.92 -290.01 578.58 -290.02 576.24 C-290.02 575.18 -290.02 575.18 -290.03 574.09 C-290.03 572.55 -290.04 571.01 -290.04 569.47 C-290.05 567.03 -290.07 564.59 -290.09 562.14 C-290.14 555.2 -290.19 548.25 -290.2 541.3 C-290.21 537.05 -290.24 532.8 -290.28 528.55 C-290.29 526.94 -290.3 525.32 -290.3 523.71 C-290.29 513.69 -290.36 506.18 -297.5 498.39 C-298.89 497.17 -298.89 497.17 -300.31 495.94 C-301.24 495.12 -302.17 494.3 -303.12 493.45 C-305.75 491.24 -305.75 491.24 -308.41 489.77 C-310.72 488.35 -312.45 486.82 -314.32 484.87 C-316.34 482.76 -318.42 480.72 -320.49 478.67 C-322.24 476.92 -324 475.18 -325.75 473.44 C-326.62 472.57 -327.5 471.71 -328.39 470.82 C-333.44 465.8 -338.28 460.69 -342.88 455.25 C-343.62 454.37 -344.37 453.49 -345.14 452.59 C-354.66 441.06 -363.28 429.14 -370.88 416.25 C-371.84 414.65 -371.84 414.65 -372.82 413.02 C-375.89 407.86 -378.66 402.83 -380.88 397.25 C-381.48 395.91 -382.08 394.58 -382.69 393.25 C-385.63 386.67 -388.22 379.95 -390.88 373.25 C-391.43 371.89 -391.43 371.89 -391.99 370.51 C-393.17 367.48 -394 364.38 -394.88 361.25 C-395.36 359.85 -395.36 359.85 -395.86 358.43 C-396.88 355.24 -397.54 352.15 -398.13 348.86 C-398.34 347.65 -398.56 346.45 -398.78 345.21 C-399 343.96 -399.21 342.72 -399.44 341.44 C-399.66 340.2 -399.88 338.97 -400.11 337.7 C-401.78 328.25 -403.01 319.02 -403.15 309.42 C-403.16 308.6 -403.17 307.78 -403.19 306.94 C-403.43 286.78 -402.5 267.96 -397.88 248.25 C-397.66 247.31 -397.44 246.37 -397.21 245.4 C-395.92 239.97 -394.45 234.6 -392.88 229.25 C-392.5 227.93 -392.12 226.6 -391.74 225.28 C-389.18 216.55 -389.18 216.55 -386.88 214.25 C-386.12 212.39 -385.42 210.51 -384.75 208.62 C-380.61 197.6 -375.32 187.11 -368.88 177.25 C-368.19 175.92 -367.52 174.59 -366.88 173.25 C-366.22 173.25 -365.56 173.25 -364.88 173.25 C-363.88 170.28 -363.88 170.28 -362.88 167.25 C-362.22 167.25 -361.56 167.25 -360.88 167.25 C-360.69 166.04 -360.69 166.04 -360.5 164.81 C-360.29 163.97 -360.09 163.12 -359.88 162.25 C-359.22 161.92 -358.56 161.59 -357.88 161.25 C-357.38 160.32 -356.88 159.39 -356.38 158.44 C-353.66 153.46 -349.88 149.31 -346.21 145.02 C-343.91 142.37 -343.91 142.37 -342.19 139.89 C-341.76 139.35 -341.32 138.81 -340.88 138.25 C-340.22 138.25 -339.56 138.25 -338.88 138.25 C-338.61 137.67 -338.34 137.09 -338.06 136.5 C-336.85 134.19 -335.57 132.23 -333.88 130.25 C-333.22 130.25 -332.56 130.25 -331.88 130.25 C-331.55 129.44 -331.55 129.44 -331.23 128.61 C-329.39 125.4 -326.88 123 -324.25 120.44 C-323.71 119.9 -323.17 119.37 -322.61 118.82 C-319.14 115.42 -315.59 112.12 -311.88 108.98 C-310.33 107.64 -308.81 106.26 -307.3 104.86 C-306.42 104.04 -305.54 103.22 -304.62 102.38 C-303.82 101.61 -303.01 100.85 -302.17 100.07 C-299.88 98.25 -299.88 98.25 -297.7 97.74 C-297.1 97.58 -296.5 97.42 -295.88 97.25 C-295.19 95.93 -294.52 94.59 -293.88 93.25 C-291.77 91.54 -291.77 91.54 -289.25 89.88 C-285.95 87.66 -282.72 85.42 -279.56 83 C-276.08 80.37 -272.58 78.06 -268.62 76.19 C-266.69 75.37 -266.69 75.37 -265.88 73.25 C-263.31 72.62 -263.31 72.62 -260.88 72.25 C-260.54 71.26 -260.22 70.27 -259.88 69.25 C-258.23 68.54 -256.56 67.88 -254.88 67.25 C-252.35 65.85 -249.9 64.33 -247.44 62.81 C-242.99 60.08 -238.56 57.55 -233.88 55.25 C-232.12 54.3 -230.37 53.35 -228.62 52.4 C-222.38 48.99 -216.13 45.97 -209.51 43.33 C-207.2 42.38 -205.02 41.34 -202.81 40.19 C-198.02 37.72 -192.96 36.03 -187.88 34.25 C-185.98 33.57 -184.08 32.88 -182.19 32.19 C-181.28 31.86 -180.37 31.53 -179.43 31.19 C-177.2 30.37 -174.97 29.53 -172.75 28.69 C-165.02 25.79 -157.17 23.45 -149.21 21.22 C-146.58 20.45 -144.02 19.62 -141.44 18.69 C-136.32 16.92 -131.03 16.05 -125.72 15.09 C-122.9 14.47 -120.49 13.79 -117.81 12.82 C-111.52 10.65 -104.99 9.75 -98.44 8.69 C-95.92 8.27 -93.4 7.85 -90.88 7.43 C-89.67 7.23 -88.46 7.03 -87.21 6.83 C-84.46 6.35 -81.75 5.8 -79.03 5.2 C-72.46 3.85 -65.77 3.41 -59.1 2.87 C-56.84 2.69 -54.58 2.5 -52.32 2.31 C-47.84 1.93 -43.36 1.58 -38.88 1.25 C-37.84 1.17 -37.84 1.17 -36.78 1.09 C-24.53 0.21 -12.29 0.01 0 0 Z " fill="#003845" transform="translate(558.875,56.75)"/>
<path d="M0 0 C0.33 0.33 0.66 0.66 1 1 C2.45 1.26 3.91 1.47 5.38 1.65 C6.28 1.77 7.18 1.89 8.11 2.01 C10.01 2.25 11.9 2.49 13.79 2.72 C19.07 3.42 23.87 4.47 28.88 6.27 C32.2 7.41 35.59 8.15 39 8.94 C44.1 10.16 48.75 11.61 53.45 13.93 C57.82 15.76 62.41 16.93 66.97 18.16 C71.12 19.31 74.3 20.75 78 23 C80.33 23.68 82.66 24.34 85 25 C87.49 26.09 89.89 27.21 92.31 28.44 C93.33 28.95 93.33 28.95 94.36 29.47 C100.82 32.78 107 36.54 113.15 40.41 C113.87 40.86 114.59 41.31 115.33 41.78 C115.97 42.18 116.61 42.59 117.26 43 C119.14 44.16 119.14 44.16 122 45 C122 45.66 122 46.32 122 47 C122.69 47.24 123.38 47.48 124.09 47.72 C127.54 49.24 130.47 51.24 133.5 53.44 C134.11 53.88 134.72 54.32 135.35 54.77 C159.6 72.54 183.95 97.1 194 126 C194.34 126.86 194.68 127.72 195.04 128.61 C204.12 151.92 204.77 173.86 199 198 C198.76 199.08 198.52 200.17 198.28 201.28 C196.57 208.39 193.47 214.59 190 221 C189.53 221.89 189.06 222.77 188.57 223.69 C185.33 229.67 185.33 229.67 183 232 C182.67 232.85 182.34 233.69 182 234.56 C181 237 181 237 179 238 C178.07 239.68 177.15 241.35 176.22 243.03 C174.1 246.45 171.34 249.24 168.56 252.12 C168 252.72 167.44 253.31 166.87 253.93 C146.94 274.99 146.94 274.99 136.2 281.61 C133.55 283.28 131.07 285.13 128.56 287 C122.6 291.37 116.42 295.19 109.88 298.64 C108.83 299.22 107.77 299.79 106.69 300.38 C105.24 301.13 105.24 301.13 103.76 301.9 C98.99 305.53 96.38 309.25 95.55 315.29 C95.38 319.33 95.36 323.33 95.4 327.37 C95.39 328.85 95.38 330.34 95.37 331.82 C95.35 335.71 95.36 339.6 95.37 343.49 C95.39 349.74 95.38 355.98 95.34 362.23 C95.34 364.41 95.35 366.58 95.36 368.76 C95.36 370.08 95.36 371.39 95.35 372.75 C95.36 374.49 95.36 374.49 95.37 376.27 C95.24 377.17 95.12 378.07 95 379 C94.01 379.66 93.02 380.32 92 381 C90.62 380.31 89.25 379.62 87.88 378.94 C86.96 378.48 86.05 378.03 85.12 377.56 C82.93 376.47 80.75 375.36 78.57 374.25 C72.57 371.19 66.57 368.31 60.28 365.88 C53.51 363.26 47.05 360.05 40.57 356.78 C34.42 353.69 28.19 350.79 21.94 347.9 C19.9 346.95 17.86 346 15.82 345.04 C15.14 344.72 14.46 344.4 13.76 344.07 C12.45 343.45 11.14 342.84 9.83 342.22 C0.39 337.79 -8.4 338.75 -18.54 339.93 C-29.48 341.14 -40.44 341.78 -51.44 342.25 C-52.46 342.29 -53.49 342.34 -54.55 342.39 C-123.48 345.24 -123.48 345.24 -153.58 335.7 C-157.35 334.61 -161.17 334.13 -165.06 333.62 C-173.69 332.38 -181.81 330.26 -190.11 327.6 C-191.82 327.06 -193.55 326.54 -195.28 326.04 C-211.26 321.34 -227.41 315.54 -242.22 307.89 C-243.88 307.06 -245.6 306.34 -247.31 305.62 C-260.12 300.22 -272.17 292.3 -283.28 284.02 C-285.21 282.59 -287.16 281.18 -289.13 279.79 C-290.14 279.07 -291.15 278.36 -292.19 277.62 C-293.57 276.65 -293.57 276.65 -294.98 275.66 C-295.98 274.84 -295.98 274.84 -297 274 C-297 273.34 -297 272.68 -297 272 C-297.68 271.81 -298.36 271.63 -299.06 271.44 C-303.21 269.41 -305.87 266.33 -309 263 C-311.41 260.54 -313.67 258.24 -316.44 256.19 C-319.94 253.2 -322.33 249.73 -325 246 C-326.1 244.57 -326.1 244.57 -327.22 243.11 C-347.9 215.82 -355.94 185.39 -352.75 151.33 C-351.26 140.69 -347.46 130.64 -343.12 120.88 C-342.8 120.12 -342.47 119.36 -342.14 118.57 C-340.2 114.2 -338.03 110.38 -335.15 106.56 C-333.61 104.47 -332.33 102.24 -331 100 C-324.82 90.96 -317.97 82.54 -310 75 C-309.04 73.98 -309.04 73.98 -308.05 72.93 C-303.51 70.06 -299.09 70.15 -293.81 69.88 C-287.29 69.48 -281.06 68.89 -274.68 67.51 C-269.21 66.47 -263.66 66.04 -258.12 65.5 C-242.9 64.9 -242.9 64.9 -229 60 C-226.98 59.53 -226.98 59.53 -224.68 59.22 C-223.84 59.1 -223 58.98 -222.13 58.86 C-220.8 58.68 -220.8 58.68 -219.44 58.5 C-217.62 58.24 -215.81 57.98 -214 57.72 C-213.13 57.6 -212.27 57.48 -211.38 57.35 C-203.27 56.33 -203.27 56.33 -196 53 C-194 52.53 -191.97 52.14 -189.94 51.81 C-188.87 51.63 -187.81 51.45 -186.71 51.27 C-184 51 -184 51 -182 52 C-181.67 51.01 -181.34 50.02 -181 49 C-179.33 48.81 -179.33 48.81 -177.62 48.62 C-173.97 48.35 -173.97 48.35 -172 46 C-169.18 45.59 -169.18 45.59 -165.88 45.38 C-164.78 45.3 -163.68 45.23 -162.55 45.15 C-161.71 45.1 -160.87 45.05 -160 45 C-159.67 44.01 -159.34 43.02 -159 42 C-155.81 40.94 -155.81 40.94 -152 40 C-145.25 37.9 -138.72 35.2 -132.25 32.38 C-129 31 -129 31 -126.19 30.12 C-122.7 28.89 -119.55 27.32 -116.26 25.63 C-111.12 23.06 -105.9 20.64 -100.69 18.21 C-96.65 16.32 -92.8 14.35 -89 12 C-87.43 11.19 -85.84 10.4 -84.25 9.62 C-75.63 5.73 -75.63 5.73 -68.18 0.13 C-55.29 -12.86 -16.07 -4.31 0 0 Z " fill="#003845" transform="translate(899,612)"/>
<path d="M0 0 C1.43 0.54 2.87 1.06 4.31 1.56 C6.98 2.6 9.14 3.58 11.56 5 C14.89 7.04 14.89 7.04 18.24 8.34 C22.26 10.04 25.92 12.18 29.62 14.5 C30.32 14.93 31.01 15.36 31.72 15.81 C38.69 20.27 44.82 25.52 51 31 C52.01 31.82 53.03 32.63 54.07 33.47 C57 36 59.3 38.6 61.69 41.62 C64.02 44.57 66.33 47.36 69 50 C73.37 55.41 77.21 61.18 81 67 C81.87 68.3 81.87 68.3 82.76 69.63 C86.85 75.86 90.08 82.15 93 89 C93.31 89.68 93.61 90.35 93.93 91.05 C109.78 126.03 113.13 171.6 99.94 208.08 C99.3 209.72 98.65 211.36 98 213 C97.42 214.56 96.83 216.12 96.25 217.69 C91.63 229.05 85.86 239.84 79 250 C78.56 250.66 78.13 251.32 77.68 252 C76.79 253.34 75.9 254.67 75 256 C69.7 254.52 66.7 251.04 63 247.19 C62.4 246.57 61.79 245.95 61.17 245.32 C59.99 244.11 58.81 242.9 57.63 241.68 C55.45 239.43 53.23 237.21 51 235 C29 213 29 213 26.69 210.62 C24.01 207.94 24.01 207.94 20.94 205.5 C18.19 203.16 16.2 200.84 14 198 C8.95 192.33 8.95 192.33 2.2 189.57 C-2.51 189.56 -6.13 189.63 -10.5 191.5 C-14.27 195.27 -16.51 198.85 -17.34 204.17 C-17.22 215.39 -3.26 224.85 4.26 232.28 C6.1 234.09 7.94 235.92 9.77 237.74 C14.98 242.91 20.19 248.09 25.42 253.25 C28.63 256.42 31.84 259.61 35.04 262.79 C36.25 264 37.47 265.2 38.69 266.41 C40.39 268.08 42.09 269.76 43.78 271.45 C44.28 271.94 44.78 272.43 45.3 272.94 C48.1 275.75 49.81 278.2 51 282 C50.01 282.33 49.02 282.66 48 283 C46.79 285 46.79 285 46 287 C45.01 287 44.02 287 43 287 C42.67 287.99 42.34 288.98 42 290 C41.36 290.14 40.72 290.29 40.06 290.44 C39.38 290.62 38.7 290.81 38 291 C37.69 291.64 37.38 292.28 37.06 292.94 C35.6 295.78 33.95 295.9 31 297 C30.25 297.62 29.49 298.23 28.72 298.87 C25.87 301.1 23.08 302.57 19.81 304.12 C15.57 306.09 15.57 306.09 12 309 C9.67 309.68 7.34 310.35 5 311 C2.66 311.98 0.32 312.98 -2 314 C-8.08 316.54 -14.23 318.13 -20.63 319.64 C-24.1 320.23 -24.1 320.23 -27 322 C-37.41 323.84 -47.79 324.32 -58.34 324.26 C-60.57 324.25 -62.79 324.26 -65.02 324.27 C-89.55 324.3 -89.55 324.3 -96 320 C-98.33 319.64 -100.66 319.31 -103 319 C-110.15 317.09 -117.06 314.55 -124 312 C-124.92 311.67 -125.83 311.34 -126.78 311 C-132.13 308.97 -136.87 306.42 -141.73 303.39 C-144.42 301.74 -147.15 300.35 -150 299 C-150 298.34 -150 297.68 -150 297 C-150.86 296.76 -151.73 296.52 -152.62 296.27 C-171.64 289.1 -189.8 266.11 -201 250 C-201.87 248.83 -202.75 247.67 -203.62 246.5 C-208.13 240.16 -211.76 233.23 -214.29 225.88 C-215.04 223.89 -215.98 222.11 -217 220.25 C-219.22 215.97 -220.2 211.55 -221.28 206.88 C-221.89 204.45 -222.61 202.3 -223.56 200 C-235.77 168.95 -229.07 123.67 -216.62 93.69 C-216.08 92.46 -215.54 91.23 -215 90 C-214.72 89.34 -214.45 88.69 -214.16 88.01 C-207.6 72.68 -198.5 59.85 -188 47 C-187.53 46.41 -187.05 45.82 -186.56 45.22 C-182.47 40.21 -178.04 36.03 -173 32 C-171.95 30.89 -171.95 30.89 -170.88 29.75 C-167.4 26.43 -163.63 23.74 -159.72 20.96 C-157.92 19.66 -156.15 18.31 -154.43 16.91 C-152.24 15.19 -150.13 13.82 -147.69 12.5 C-146.91 12.08 -146.14 11.66 -145.34 11.23 C-142.52 9.75 -139.69 8.3 -136.83 6.9 C-135.22 6.11 -133.64 5.28 -132.06 4.44 C-128.79 2.9 -125.51 1.8 -122.05 0.75 C-119.74 -0 -119.74 -0 -117 -2 C-114.68 -2.7 -112.34 -3.36 -110 -4 C-108.61 -4.49 -108.61 -4.49 -107.19 -5 C-103.87 -6.04 -100.7 -6.59 -97.25 -7.06 C-92.98 -7.56 -92.98 -7.56 -89 -9 C-60.17 -14.03 -26.83 -12.37 0 0 Z " fill="#003845" transform="translate(628,190)"/>
<path d="M0 0 C0.86 -0.01 1.72 -0.01 2.61 -0.02 C5.39 -0.04 8.16 -0.04 10.93 -0.05 C12.34 -0.05 12.34 -0.05 13.78 -0.05 C45.69 -0.06 45.69 -0.06 60.8 5.2 C62.46 5.68 64.11 6.15 65.77 6.61 C67.13 6.98 67.13 6.98 68.5 7.37 C70.37 7.88 72.24 8.39 74.11 8.9 C78.99 10.27 83.3 11.83 87.8 14.2 C88.76 14.52 89.72 14.83 90.71 15.16 C119.43 24.86 152.07 50.8 168.8 76.2 C168.8 76.86 168.8 77.52 168.8 78.2 C169.79 78.53 170.78 78.86 171.8 79.2 C173.28 81.11 173.28 81.11 174.87 83.7 C175.48 84.69 176.08 85.69 176.71 86.71 C177.41 87.87 178.11 89.04 178.8 90.2 C179.4 91.19 179.4 91.19 180.01 92.19 C188.23 105.82 195.14 119.23 200.19 134.35 C200.71 135.91 201.24 137.46 201.79 139.01 C203.3 143.76 204.59 148.57 205.87 153.39 C206.14 154.37 206.4 155.35 206.68 156.35 C206.94 157.33 207.2 158.3 207.46 159.31 C207.7 160.18 207.93 161.04 208.17 161.94 C209.8 170.33 209.97 178.84 210.01 187.36 C210.01 188.39 210.02 189.42 210.03 190.48 C210.03 192.65 210.04 194.81 210.04 196.98 C210.05 200.23 210.09 203.49 210.12 206.74 C210.21 224.12 208.35 239.66 202.8 256.2 C202.34 257.83 201.88 259.45 201.43 261.08 C195.35 281.19 184.73 304.27 169.8 319.2 C169.02 321.34 169.02 321.34 168.8 323.2 C169.79 323.53 170.78 323.86 171.8 324.2 C173.17 325.84 174.5 327.51 175.8 329.2 C178.38 331.91 180.97 334.34 183.87 336.7 C186.62 339.04 188.6 341.36 190.8 344.2 C193.18 346.7 195.41 348.93 198.24 350.89 C202.99 355.18 206.72 361.04 207.93 367.39 C207.73 373.57 205.21 376.55 201.3 381.14 C197.49 384.13 193.16 383.67 188.51 383.57 C185.8 383.2 185.8 383.2 182.8 381.2 C182.8 380.54 182.8 379.88 182.8 379.2 C182 378.93 181.2 378.67 180.37 378.39 C179.52 378 178.68 377.61 177.8 377.2 C177.47 376.21 177.14 375.22 176.8 374.2 C175.48 373.52 174.14 372.86 172.8 372.2 C171.06 370.43 171.06 370.43 169.37 368.39 C164.88 363 159.84 358.25 154.68 353.52 C154.16 353.03 153.63 352.54 153.09 352.04 C150.74 349.89 148.47 347.98 145.8 346.2 C144.59 347.25 144.59 347.25 143.35 348.33 C134.3 356.11 125.24 363.68 114.58 369.2 C112.64 370.19 112.64 370.19 110.8 372.2 C110.17 372.35 109.53 372.49 108.87 372.64 C106.74 373.04 106.74 373.04 105.43 374.58 C102.4 377.6 98.56 378.95 94.55 380.27 C91.7 381.01 91.7 381.01 89.8 383.2 C88.3 383.72 86.78 384.17 85.24 384.58 C81.85 385.53 78.82 386.62 75.68 388.2 C70.12 390.82 64.19 391.59 58.18 392.59 C54.95 393.01 54.95 393.01 52.8 394.2 C50.31 394.48 47.82 394.65 45.31 394.82 C42.84 395.05 42.84 395.05 41.02 396.19 C32.92 399.9 21.19 398.36 12.43 398.33 C11.26 398.32 10.08 398.32 8.87 398.32 C-14.38 398.18 -14.38 398.18 -20.2 395.2 C-22.75 394.79 -22.75 394.79 -25.38 394.64 C-30.1 394.3 -30.1 394.3 -31.2 393.2 C-34.55 392.55 -37.92 391.96 -41.29 391.4 C-44.85 390.77 -47.15 390.23 -50.2 388.2 C-51.72 387.7 -53.27 387.25 -54.82 386.83 C-59.86 385.37 -64.45 383.42 -69.2 381.2 C-70.2 380.76 -71.2 380.32 -72.23 379.86 C-79.86 376.44 -87.05 372.54 -94.2 368.2 C-95.13 367.68 -96.07 367.16 -97.04 366.62 C-97.75 366.15 -98.46 365.69 -99.2 365.2 C-99.2 364.54 -99.2 363.88 -99.2 363.2 C-99.75 363.11 -100.31 363.01 -100.88 362.91 C-103.76 362.03 -105.75 360.63 -108.2 358.89 C-109.04 358.3 -109.89 357.7 -110.76 357.09 C-113.12 355.26 -115.09 353.32 -117.2 351.2 C-118.43 350.11 -119.68 349.03 -120.93 347.96 C-141.49 330.08 -157.57 309.82 -169.2 285.2 C-169.71 284.14 -170.22 283.09 -170.75 282 C-172.29 278.76 -173.76 275.49 -175.2 272.2 C-175.69 271.09 -176.18 269.97 -176.69 268.82 C-184.04 250.86 -188.3 230.43 -188.4 211.02 C-188.4 210.15 -188.41 209.29 -188.42 208.41 C-188.43 206.59 -188.43 204.78 -188.44 202.96 C-188.45 200.24 -188.48 197.52 -188.51 194.79 C-188.57 183.85 -187.59 173.89 -185.2 163.2 C-184.87 161.42 -184.55 159.65 -184.24 157.86 C-181.64 143.66 -177.54 130.21 -171.2 117.2 C-170.68 116.14 -170.17 115.07 -169.64 113.98 C-163.39 101.22 -156.6 88.62 -147.32 77.77 C-145.03 75.32 -145.03 75.32 -144.2 72.2 C-142.56 70.5 -140.89 68.84 -139.2 67.2 C-138.13 66.06 -137.08 64.91 -136.03 63.75 C-129.17 56.2 -122.33 49.39 -114.2 43.2 C-113.37 42.55 -112.54 41.89 -111.69 41.21 C-107.98 38.26 -104.32 35.55 -100.2 33.2 C-99.16 32.5 -98.13 31.8 -97.07 31.08 C-94.2 29.2 -94.2 29.2 -91.2 28.2 C-90.87 27.54 -90.54 26.88 -90.2 26.2 C-87.03 24.47 -83.78 23.02 -80.45 21.64 C-77.18 20.43 -77.18 20.43 -75.2 18.2 C-73.55 17.49 -71.88 16.83 -70.2 16.2 C-69.43 15.9 -68.66 15.59 -67.87 15.27 C-66.2 14.61 -64.54 13.94 -62.87 13.28 C-61.14 12.58 -59.42 11.87 -57.71 11.12 C-52.35 8.84 -47.32 7.51 -41.54 6.7 C-38.94 6.3 -38.94 6.3 -36.2 4.2 C-34.24 3.72 -34.24 3.72 -32.03 3.39 C-31.22 3.26 -30.4 3.14 -29.57 3.01 C-28.72 2.89 -27.88 2.77 -27.01 2.64 C-26.18 2.51 -25.36 2.39 -24.51 2.26 C-22.07 1.89 -19.64 1.54 -17.2 1.2 C-15.35 0.94 -15.35 0.94 -13.47 0.67 C-8.98 0.12 -4.52 0.02 0 0 Z M-24.91 34.7 C-28.28 35.44 -31.67 36.03 -35.07 36.64 C-37.47 37.15 -37.47 37.15 -40.2 39.2 C-43.01 40.23 -45.85 41.11 -48.74 41.93 C-49.63 42.18 -50.52 42.44 -51.45 42.7 C-52.3 42.94 -53.15 43.18 -54.02 43.42 C-56.37 44.09 -56.37 44.09 -58.2 46.2 C-59.86 46.89 -61.52 47.55 -63.2 48.2 C-73.66 53.01 -82.99 59.33 -92.2 66.2 C-92.95 66.75 -93.71 67.3 -94.49 67.87 C-99.3 71.39 -103.51 75.04 -107.2 79.77 C-109.2 82.2 -109.2 82.2 -111.52 83.98 C-114.49 86.45 -116.72 89.19 -119.01 92.27 C-119.44 92.84 -119.87 93.42 -120.32 94.01 C-121.2 95.18 -122.08 96.36 -122.95 97.54 C-124.06 99.03 -125.2 100.5 -126.34 101.97 C-132.64 110.26 -137.75 119.34 -141.8 128.94 C-142.82 131.32 -143.86 133.47 -145.13 135.7 C-147.68 140.7 -148.9 146.08 -150.25 151.49 C-151.02 154.5 -151.89 157.43 -152.82 160.39 C-161.57 192.99 -157.87 233.54 -144.2 264.2 C-143.54 265.19 -142.88 266.18 -142.2 267.2 C-141.97 268.17 -141.74 269.14 -141.51 270.14 C-134.36 296.36 -104.6 324.65 -82.2 338.2 C-80.02 338.91 -80.02 338.91 -78.2 339.2 C-78.2 339.86 -78.2 340.52 -78.2 341.2 C-77.3 341.67 -76.41 342.14 -75.49 342.63 C-74.31 343.26 -73.13 343.89 -71.95 344.52 C-70.21 345.44 -70.21 345.44 -68.43 346.38 C-65.2 348.2 -65.2 348.2 -63.02 349.85 C-61.11 351.27 -59.59 351.9 -57.32 352.58 C-53.37 353.81 -49.51 355.2 -45.63 356.64 C-39.59 358.82 -33.52 360.49 -27.26 361.95 C-22.29 363.11 -22.29 363.11 -21.2 364.2 C-11.16 366.11 -1.17 366.52 9.01 366.46 C11.24 366.45 13.46 366.46 15.69 366.48 C32.49 367.09 32.49 367.09 47.8 362.2 C50.02 361.67 52.25 361.19 54.49 360.77 C62.49 359.12 69.3 356.47 76.7 353.11 C78.8 352.2 78.8 352.2 82.12 351.14 C84.79 350.36 84.79 350.36 86.66 348.8 C88.93 347.11 91.18 345.97 93.74 344.77 C97.52 342.93 100.56 340.89 103.8 338.2 C104.71 337.85 105.62 337.5 106.55 337.14 C107.67 336.68 107.67 336.68 108.8 336.2 C109.13 335.21 109.46 334.22 109.8 333.2 C112.37 332.02 112.37 332.02 114.8 331.2 C114.8 330.54 114.8 329.88 114.8 329.2 C115.44 329.1 116.08 329 116.74 328.89 C117.76 328.55 117.76 328.55 118.8 328.2 C119.13 327.21 119.46 326.22 119.8 325.2 C120.79 324.87 121.78 324.54 122.8 324.2 C121.36 319.34 118.39 316.41 114.84 312.96 C114.23 312.36 113.62 311.76 112.99 311.13 C111.67 309.83 110.35 308.52 109.02 307.22 C106.91 305.16 104.82 303.09 102.73 301.01 C96.78 295.12 90.81 289.25 84.84 283.37 C81.18 279.78 77.54 276.17 73.9 272.56 C71.84 270.52 69.77 268.5 67.7 266.47 C66.43 265.22 65.16 263.96 63.9 262.7 C63.32 262.15 62.75 261.59 62.15 261.02 C57.46 256.31 54.8 252.08 54.8 245.2 C55.58 240.82 57.66 237.34 60.8 234.2 C65.61 231.07 71.3 231.59 76.8 232.2 C79.74 233.89 79.74 233.89 81.8 236.2 C82.63 236.99 83.45 237.77 84.3 238.58 C86.8 241.2 86.8 241.2 89.3 244.27 C91.64 247.01 93.96 249.02 96.8 251.2 C98.16 252.52 99.49 253.85 100.8 255.2 C101.49 255.88 102.17 256.56 102.87 257.27 C109.51 263.91 116.16 270.56 122.8 277.2 C123.54 277.93 124.27 278.66 125.02 279.41 C127.09 281.49 129.14 283.58 131.18 285.68 C132.39 286.92 133.6 288.16 134.8 289.39 C135.41 290.02 136.01 290.65 136.63 291.29 C139.81 294.52 142.32 296.95 146.8 298.2 C149.04 294.74 151.27 291.28 153.49 287.81 C154.76 285.82 156.04 283.85 157.34 281.88 C160.79 276.59 163.33 271 165.8 265.2 C166.14 264.41 166.48 263.62 166.83 262.8 C167.87 260.29 168.84 257.75 169.8 255.2 C170.21 254.2 170.61 253.19 171.02 252.16 C184.69 215.32 181.58 170.19 166.8 134.2 C165.57 131.78 164.22 129.52 162.8 127.2 C162.04 125.67 161.29 124.13 160.55 122.58 C156.04 113.47 150.65 104.97 144.26 97.06 C142.8 95.2 142.8 95.2 141.18 92.45 C139.42 89.57 137.22 87.56 134.8 85.2 C133.59 83.79 132.38 82.37 131.18 80.95 C126.56 75.71 121.3 71.5 115.8 67.2 C114.75 66.33 114.75 66.33 113.66 65.43 C104.56 58.02 94.09 50.81 82.92 47.02 C80.8 46.2 80.8 46.2 78.45 44.76 C69.85 39.69 59.47 37.4 49.8 35.2 C49.1 35.02 48.39 34.84 47.66 34.65 C24.36 28.85 -1.57 29.59 -24.91 34.7 Z " fill="#F9FCFE" transform="translate(556.1953125,147.796875)"/>
<path d="M0 0 C6.5 3.43 8.4 9.39 11 16 C11.41 17.04 11.82 18.08 12.25 19.15 C13.52 22.42 14.76 25.71 16 29 C19.16 37.36 19.16 37.36 22.56 45.62 C24.57 50.35 26.26 55.17 28 60 C29.6 64.36 31.27 68.69 33 73 C35.09 78.2 37.07 83.42 38.97 88.7 C40.4 92.67 41.83 96.61 43.5 100.5 C45.17 104.41 46.6 108.37 48.03 112.38 C48.79 114.44 49.63 116.48 50.5 118.5 C52.13 122.31 53.54 126.16 54.94 130.06 C57.32 136.64 59.83 143.17 62.38 149.69 C64.49 155.12 66.6 160.56 68.69 166 C70.05 169.56 71.44 173.1 72.88 176.62 C75.21 182.41 77.32 188.27 79.45 194.14 C80.76 197.73 82.09 201.25 83.7 204.73 C85 207.99 85.38 210.2 85.31 213.69 C85.31 214.6 85.3 215.51 85.3 216.45 C84.78 220.89 83.36 222.67 80.06 225.69 C75.61 229.05 72.5 229.37 67 229 C63.88 227.75 63.88 227.75 61 226 C60.15 225.5 59.31 225.01 58.44 224.5 C51.94 217.84 49.44 207 46.44 198.38 C43.89 191.1 41.21 184 38 177 C37.24 175.19 36.48 173.38 35.75 171.56 C35.41 170.74 35.08 169.92 34.73 169.07 C34 167 34 167 34 165 C23.77 164.88 13.54 164.8 3.31 164.74 C-1.44 164.71 -6.2 164.68 -10.95 164.62 C-15.53 164.57 -20.11 164.54 -24.7 164.53 C-26.45 164.52 -28.2 164.5 -29.95 164.47 C-32.4 164.44 -34.84 164.43 -37.29 164.43 C-38.02 164.41 -38.74 164.4 -39.49 164.38 C-43.24 164.42 -44.7 164.71 -47.42 167.38 C-48.95 169.92 -49.84 172.02 -50.56 174.88 C-51.73 179.11 -53.2 182.98 -55 187 C-57.87 193.67 -60.54 200.38 -63.06 207.19 C-70.93 228.4 -70.93 228.4 -78 232 C-83.2 233 -88.03 233.08 -92.75 230.5 C-98.43 226.13 -98.43 226.13 -100 223 C-101.09 214.64 -99.43 208.79 -95.66 201.37 C-92.91 195.78 -91.03 189.88 -89 184 C-87.1 178.76 -85.04 173.6 -82.97 168.43 C-80.87 163.16 -78.94 157.83 -77 152.5 C-76.66 151.56 -76.31 150.62 -75.96 149.64 C-75.4 148.1 -74.84 146.56 -74.29 145.01 C-72.71 140.66 -70.9 136.43 -69.06 132.19 C-66.89 127.17 -64.89 122.13 -63.06 116.98 C-61.75 113.29 -60.38 109.61 -59 105.94 C-58.76 105.3 -58.53 104.66 -58.28 104.01 C-56.92 100.38 -55.51 96.77 -54.07 93.17 C-51.59 87.01 -49.25 80.8 -46.91 74.59 C-45.48 70.82 -44.04 67.09 -42.44 63.39 C-40.78 59.48 -39.38 55.52 -38 51.5 C-36.19 46.23 -34.21 41.12 -32 36 C-30.96 33.13 -29.96 30.25 -28.96 27.36 C-28 25 -28 25 -26 23 C-25.51 21.31 -25.08 19.59 -24.69 17.88 C-22.98 11.28 -20.18 5.55 -15 1 C-10.06 -0.65 -5.15 -0.57 0 0 Z " fill="#F9FCFE" transform="translate(831,675)"/>
<path d="M0 0 C0.66 0 1.32 0 2 0 C2.9 2.37 3.79 4.75 4.69 7.12 C5.1 8.21 5.1 8.21 5.51 9.31 C7.27 14 8.97 18.71 10.62 23.44 C12.24 28 14 32.4 16.03 36.79 C17.56 40.27 18.79 43.86 20.06 47.44 C20.82 49.51 21.68 51.54 22.56 53.56 C24.93 59.21 26.52 65.07 28 71 C10.18 71 -7.64 71 -26 71 C-27.63 67.74 -26.01 65 -24.96 61.65 C-23.86 58.62 -22.47 55.89 -20.96 53.05 C-19.9 50.8 -19.23 48.59 -18.56 46.19 C-17.52 42.48 -16.21 39.11 -14.56 35.62 C-12.3 30.82 -10.59 25.97 -8.97 20.92 C-7.51 16.53 -5.78 12.27 -4 8 C-3.56 6.94 -3.56 6.94 -3.12 5.86 C-1.14 1.14 -1.14 1.14 0 0 Z " fill="#003845" transform="translate(824,737)"/>
</svg>
